<?xml version="1.0" encoding="UTF-8"?>
<svg id="Layer_1" data-name="Layer 1" xmlns="http://www.w3.org/2000/svg" viewBox="0 0 19.5813 21.8488">
  <defs>
    <style>
      .cls-1 {
        fill: #071829;
      }
    </style>
  </defs>
  <path class="cls-1" d="M15.2682,17.6238l2.4442,2.8185c.7216,.8393-.5502,1.9443-1.28,1.1099-.022-.0253-.0448-.0557-.0633-.0828l-2.0793-3.0975c-.4257-.6303,.4857-1.3227,.9785-.7482h0Z"/>
  <path class="cls-1" d="M9.7906,0C4.3834,0,0,4.3834,0,9.7906s4.3834,9.7906,9.7906,9.7906c2.1063,0,4.0572-.6651,5.6542-1.7968,2.5028-1.7735,4.1364-4.6929,4.1364-7.9938C19.5813,4.3834,15.1978,0,9.7906,0Zm3.1906,2.0156c1.4146,.494,2.1702,1.4891,2.4117,1.8381-.4337-.4139-1.2043-1.0426-2.3296-1.4667-1.3882-.5232-2.608-.4681-3.2381-.3949,.3933-.1302,1.6662-.4968,3.156,.0235ZM7.2466,7.8093c.1532-.4236,.496-.557,.7639-1.1459,.206-.4526,.2364-.8858,.2292-1.1841,.3655,.8838,.2671,1.4067,.1146,1.7189-.2058,.4212-.535,.5097-.7258,.9549-.2212,.5161-.0687,1.0737,.0833,1.448-.5932-.8902-.5909-1.4444-.4653-1.7918Zm2.544,10.8681C5.0338,18.6774,1.15,14.9399,.9153,10.2414c2.5058,.3024,5.2651,.5088,8.2537,.5338,.3782,.0032,.7497,.0008,1.1205-.0021,.0025-.2219-.0325-.4506-.1277-.6727-.2198-.5129-.599-.6149-.8361-1.1001-.1757-.3596-.2891-.962,.132-1.9802-.0084,.3437,.0267,.8427,.264,1.3642,.3087,.6785,.7036,.8321,.8801,1.3201,.0906,.2505,.1254,.5945-.0288,1.0682,.4718-.0055,.938-.0153,1.3986-.029,.1782-.4838,.3211-1.1433,.0569-1.7598-.25-.5835-.6815-.6996-.9512-1.2516-.1999-.4091-.3289-1.0945,.1502-2.2529-.0095,.391,.0304,.9587,.3004,1.552,.3513,.7719,.8005,.9467,1.0013,1.5019,.1578,.4363,.1594,1.1261-.5244,2.2092,2.3847-.0721,4.6125-.2536,6.6612-.5008-.2349,4.6984-4.1186,8.4358-8.8754,8.4358Z"/>
</svg>